<?xml version="1.0" encoding="utf-8"?>
<svg xmlns="http://www.w3.org/2000/svg">
<symbol id="logo" viewBox="0 0 377.24399 93.593575">
	<g fill="#666" transform="matrix(.26458 0 0 .26458 92.6 -3.3951)">
		<path d="m145.49 192.37v19.095c-5.773-3.1824-11.583-5.5508-17.43-7.1051-5.773-1.6282-11.62-2.4423-17.541-2.4424-13.248.00011-23.536 4.2188-30.863 12.656-7.3272 8.3634-10.991 20.131-10.991 35.304-.000034 15.172 3.6635 26.977 10.991 35.415 7.3271 8.3634 17.615 12.545 30.863 12.545 5.9209.00002 11.768-.77711 17.541-2.3314 5.8468-1.6282 11.657-4.0336 17.43-7.2162v18.873c-5.699 2.6644-11.62 4.6628-17.763 5.995-6.0691 1.3322-12.545 1.9983-19.428 1.9983-18.725 0-33.601-5.8839-44.629-17.652s-16.542-27.643-16.542-47.627c-.000012-20.279 5.5509-36.229 16.653-47.849 11.176-11.62 26.459-17.43 45.85-17.43 6.2909.00013 12.434.66623 18.429 1.9983 5.9949 1.2583 11.805 3.1826 17.43 5.7729"/>
		<path d="m228.98 201.92c-10.954.00011-19.613 4.2928-25.978 12.878-6.3651 8.5114-9.5476 20.205-9.5475 35.082-.00003 14.876 3.1455 26.607 9.4365 35.193 6.365 8.5114 15.061 12.767 26.089 12.767 10.88.00002 19.502-4.2927 25.867-12.878 6.3649-8.5853 9.5474-20.279 9.5475-35.082-.00011-14.728-3.1826-26.385-9.5475-34.971-6.3651-8.6593-14.987-12.989-25.867-12.989m0-17.319c17.763.00013 31.714 5.773 41.854 17.319s15.209 27.532 15.209 47.96c-.00013 20.353-5.0699 36.34-15.209 47.96-10.14 11.546-24.091 17.319-41.854 17.319-17.837 0-31.825-5.7729-41.965-17.319-10.066-11.62-15.098-27.606-15.098-47.96-.00001-20.427 5.0328-36.414 15.098-47.96 10.14-11.546 24.128-17.319 41.965-17.319"/>
		<path d="m416.6 211.46c5.1067-9.1774 11.213-15.949 18.318-20.316 7.105-4.3666 15.468-6.5499 25.09-6.55 12.952.00013 22.943 4.5518 29.975 13.655 7.0309 9.0296 10.546 21.908 10.547 38.634v75.048h-20.538v-74.382c-.00019-11.916-2.1095-20.76-6.328-26.533-4.2188-5.7728-10.658-8.6593-19.317-8.6594-10.584.00011-18.947 3.5157-25.09 10.547-6.1431 7.0312-9.2146 16.616-9.2145 28.754v70.274h-20.538v-74.382c-.0001-11.99-2.1094-20.834-6.328-26.533-4.2188-5.7728-10.732-8.6593-19.539-8.6594-10.436.00011-18.725 3.5527-24.868 10.658-6.143 7.0312-9.2145 16.579-9.2145 28.643v70.274h-20.538v-124.34h20.538v19.317c4.6627-7.6231 10.251-13.248 16.764-16.875 6.513-3.6265 14.247-5.4397 23.203-5.4399 9.0294.00013 16.69 2.2945 22.981 6.8831 6.3649 4.5888 11.065 11.25 14.099 19.983"/>
		<path d="m560.7 293.28v65.945h-20.54v-171.62h20.54v18.873c4.2926-7.4011 9.6955-12.878 16.209-16.431 6.587-3.6265 14.432-5.4397 23.536-5.4399 15.098.00013 27.347 5.9951 36.747 17.985 9.4734 11.99 14.21 27.755 14.21 47.294-.00014 19.539-4.7369 35.304-14.21 47.294-9.3996 11.99-21.649 17.985-36.747 17.985-9.1035 0-16.949-1.7763-23.536-5.3288-6.5131-3.6266-11.916-9.1404-16.209-16.542m69.497-43.408c-.00011-15.024-3.1086-26.792-9.3255-35.304-6.1431-8.5853-14.617-12.878-25.423-12.878-10.806.00011-19.317 4.2928-25.534 12.878-6.143 8.5114-9.2145 20.279-9.2145 35.304-.00004 15.024 3.0714 26.829 9.2145 35.415 6.2169 8.5114 14.728 12.767 25.534 12.767 10.806.000010 19.28-4.2557 25.423-12.767 6.2169-8.5853 9.3254-20.39 9.3255-35.415"/>
		<path d="m741.77 249.43c-16.505.00006-27.94 1.8874-34.304 5.6619-6.365 3.7747-9.5476 10.214-9.5475 19.317-.00003 7.2532 2.3684 13.026 7.1051 17.319 4.8107 4.2187 11.324 6.328 19.539 6.328 11.324.000010 20.39-3.9966 27.199-11.99 6.883-8.0672 10.325-18.762 10.325-32.084v-4.5517h-20.316m40.744-8.4374v70.94h-20.427v-18.873c-4.6628 7.5492-10.473 13.137-17.43 16.764-6.9572 3.5526-15.469 5.3288-25.534 5.3288-12.73 0-22.87-3.5526-30.419-10.658-7.4752-7.1791-11.213-16.764-11.213-28.754-.000010-13.988 4.6627-24.535 13.988-31.64 9.3995-7.1051 23.388-10.658 41.965-10.658h28.643v-1.9983c-.00010-9.3994-3.1086-16.653-9.3255-21.759-6.1431-5.1807-14.802-7.7711-25.978-7.7712-7.1052.00011-14.025.85124-20.76 2.5534-6.7351 1.7024-13.211 4.2558-19.428 7.6602v-18.873c7.4752-2.8863 14.728-5.0327 21.759-6.439 7.0311-1.4801 13.877-2.2202 20.538-2.2204 17.985.00013 31.418 4.6629 40.299 13.988 8.8813 9.3256 13.322 23.462 13.322 42.409"/>
		<path d="m928.5 236.89v75.048h-20.427v-74.382c-.00010-11.768-2.2945-20.575-6.8831-26.422-4.5888-5.8468-11.472-8.7703-20.649-8.7704-11.028.00011-19.724 3.5157-26.089 10.547-6.3651 7.0312-9.5476 16.616-9.5475 28.754v70.274h-20.538v-124.34h20.538v19.317c4.8847-7.4751 10.621-13.063 17.208-16.764 6.661-3.7005 14.321-5.5508 22.981-5.5509 14.284.00013 25.09 4.4408 32.417 13.322 7.327 8.8075 10.991 21.797 10.991 38.967"/>
		<path d="m1021.2 323.48c-5.7729 14.802-11.398 24.461-16.875 28.976-5.4769 4.5147-12.804 6.772-21.981 6.7721h-16.32v-17.097h11.99c5.6249-.00003 9.9916-1.3322 13.1-3.9966s6.55-8.9554 10.325-18.873l3.6636-9.3255-50.291-122.34h21.648l38.856 97.252 38.856-97.252h21.648l-54.621 135.89"/>
	</g>
	<g fill="#666" transform="matrix(.26458 0 0 .26458 -13.738 -3.3951)">
		<path d="m489.95 115.06c-.00005-6.6749-1.3851-11.848-4.1551-15.519-2.7368-3.6712-6.5915-5.5068-11.564-5.5068-4.9395.00005-8.7942 1.8357-11.564 5.5068-2.7367 3.6712-4.1051 8.8443-4.1051 15.519-.00001 6.6416 1.3683 11.798 4.1051 15.469 2.7701 3.6712 6.6248 5.5068 11.564 5.5068 4.9728.00001 8.8275-1.8356 11.564-5.5068 2.77-3.6712 4.1551-8.8276 4.1551-15.469m9.2114 21.727c-.00005 9.5451-2.1193 16.637-6.3579 21.276-4.2386 4.6724-10.73 7.0086-19.474 7.0087-3.2374-.00002-6.2911-.25033-9.1613-.75093-2.8702-.46727-5.657-1.2015-8.3603-2.2027v-8.9611c2.7033 1.4685 5.3733 2.5532 8.0099 3.254 2.6366.70085 5.3232 1.0513 8.06 1.0513 6.0408-.00002 10.563-1.5853 13.567-4.7559 3.0037-3.1372 4.5055-7.8931 4.5056-14.268v-4.5556c-1.9024 3.3041-4.3387 5.7738-7.309 7.4092-2.9704 1.6354-6.5248 2.453-10.663 2.453-6.8752 0-12.415-2.6199-16.621-7.8597-4.2052-5.2398-6.3078-12.182-6.3078-20.826-.000010-8.6774 2.1026-15.636 6.3078-20.876 4.2052-5.2398 9.7454-7.8597 16.621-7.8597 4.1384.000058 7.6928.81774 10.663 2.453 2.9703 1.6354 5.4066 4.1051 7.309 7.4092v-8.5105h9.2114v49.111"/>
		<path d="m566.09 113.41v4.5056h-42.352c.40048 6.3412 2.3028 11.18 5.707 14.518 3.4376 3.3041 8.2101 4.9561 14.318 4.9561 3.5377.00001 6.9586-.43386 10.263-1.3016 3.3374-.86773 6.6415-2.1693 9.9123-3.9048v8.7108c-3.3041 1.4017-6.6917 2.4697-10.163 3.204-3.471.73424-6.992 1.1014-10.563 1.1014-8.9444 0-16.037-2.6032-21.276-7.8097-5.2064-5.2064-7.8097-12.248-7.8097-21.126-.00001-9.178 2.4697-16.454 7.4092-21.827 4.9728-5.4066 11.664-8.11 20.075-8.11 7.5426.000058 13.5 2.4364 17.872 7.309 4.4054 4.8394 6.6081 11.431 6.6082 19.774m-9.2114-2.7033c-.0668-5.0395-1.4852-9.0612-4.2553-12.065-2.7368-3.0037-6.3746-4.5055-10.914-4.5056-5.1397.00005-9.2615 1.4518-12.365 4.3554-3.0705 2.9036-4.8393 6.992-5.3066 12.265l32.841-.0501"/>
		<path d="m627.62 109.9v33.842h-9.2114v-33.541c-.00004-5.3065-1.0347-9.2781-3.1038-11.915-2.0693-2.6365-5.1731-3.9548-9.3115-3.9549-4.9728.000049-8.8944 1.5853-11.765 4.7559-2.8702 3.1706-4.3053 7.4926-4.3053 12.966v31.689h-9.2614v-56.065h9.2614v8.7108c2.2027-3.3708 4.7892-5.8906 7.7596-7.5593 3.0037-1.6687 6.458-2.503 10.363-2.5031 6.4412.000058 11.314 2.0025 14.618 6.0074 3.304 3.9716 4.9561 9.8289 4.9561 17.572"/>
		<path d="m694.05 113.41v4.5056h-42.352c.40048 6.3412 2.3028 11.18 5.7071 14.518 3.4376 3.3041 8.2101 4.9561 14.318 4.9561 3.5377.00001 6.9586-.43386 10.263-1.3016 3.3374-.86773 6.6415-2.1693 9.9123-3.9048v8.7108c-3.3041 1.4017-6.6917 2.4697-10.163 3.204-3.471.73424-6.992 1.1014-10.563 1.1014-8.9444 0-16.037-2.6032-21.276-7.8097-5.2064-5.2064-7.8097-12.248-7.8097-21.126 0-9.178 2.4697-16.454 7.4092-21.827 4.9728-5.4066 11.664-8.11 20.075-8.11 7.5426.000058 13.5 2.4364 17.872 7.309 4.4054 4.8394 6.6081 11.431 6.6082 19.774m-9.2114-2.7033c-.0668-5.0395-1.4852-9.0612-4.2553-12.065-2.7368-3.0037-6.3746-4.5055-10.913-4.5056-5.1397.00005-9.2615 1.4518-12.365 4.3554-3.0705 2.9036-4.8393 6.992-5.3066 12.265l32.841-.0501"/>
		<path d="m741.46 96.286c-1.0346-.60069-2.1694-1.0346-3.4042-1.3016-1.2015-.30032-2.5365-.45051-4.005-.45056-5.2065.000049-9.2114 1.7022-12.015 5.1063-2.7701 3.3709-4.1552 8.2269-4.1551 14.568v29.537h-9.2614v-56.069h9.2614v8.7108c1.9357-3.4042 4.4555-5.9239 7.5594-7.5593 3.1038-1.6687 6.8751-2.503 11.314-2.5031.63408.000058 1.335.05012 2.1026.15019.76758.06681 1.6186.18362 2.5532.35043l.0501 9.4617"/>
		<path d="m751.22 87.676h9.2114v56.069h-9.21v-56.059m0-21.827h9.2114v11.664h-9.21v-11.664"/>
		<path d="m820.01 89.828v8.6106c-2.6033-1.4351-5.2232-2.503-7.8597-3.204-2.6033-.73419-5.2398-1.1013-7.9098-1.1014-5.9741.00005-10.613 1.9024-13.917 5.7071-3.3041 3.7714-4.9561 9.0779-4.9561 15.92-.000010 6.8418 1.652 12.165 4.9561 15.97 3.3041 3.7713 7.9431 5.657 13.917 5.657 2.6699.00001 5.3065-.35043 7.9098-1.0513 2.6366-.73423 5.2565-1.8189 7.8597-3.254v8.5105c-2.5699 1.2015-5.2398 2.1026-8.0099 2.7033-2.7368.60075-5.657.90112-8.7608.90112-8.4438 0-15.152-2.6533-20.125-7.9598-4.9728-5.3066-7.4592-12.465-7.4592-21.477-.000010-9.1446 2.5031-16.337 7.5093-21.577 5.0395-5.2398 11.931-7.8597 20.676-7.8597 2.8368.000058 5.6069.30043 8.3103.90112 2.7033.56742 5.3232 1.4352 7.8597 2.6032"/>
		<path d="m868.57 65.849h9.2114v77.896h-9.21v-77.886"/>
		<path d="m918.73 94.134c-4.9395.00005-8.8443 1.9358-11.714 5.8072-2.8702 3.8381-4.3053 9.1113-4.3053 15.82-.000010 6.7083 1.4184 11.998 4.2553 15.87 2.8702 3.8381 6.7917 5.7571 11.765 5.7571 4.906.00001 8.7942-1.9357 11.664-5.8072 2.8702-3.8714 4.3053-9.1446 4.3053-15.82-.00005-6.6415-1.4352-11.898-4.3053-15.769-2.8703-3.9048-6.7584-5.8572-11.664-5.8572m0-7.8097c8.0099.000058 14.301 2.6033 18.873 7.8097 4.5723 5.2065 6.8584 12.415 6.8585 21.627-.00006 9.178-2.2862 16.387-6.8585 21.627-4.5724 5.2064-10.863 7.8097-18.873 7.8097-8.0433 0-14.351-2.6032-18.923-7.8097-4.539-5.2398-6.8084-12.449-6.8084-21.627 0-9.2114 2.2695-16.42 6.8084-21.627 4.5723-5.2064 10.88-7.8096 18.923-7.8097"/>
		<path d="m996.58 115.06c-.00004-6.6749-1.3851-11.848-4.1551-15.519-2.7368-3.6712-6.5915-5.5068-11.564-5.5068-4.9395.00005-8.7942 1.8357-11.564 5.5068-2.7367 3.6712-4.1051 8.8443-4.1051 15.519-.00002 6.6416 1.3683 11.798 4.1051 15.469 2.7701 3.6712 6.6248 5.5068 11.564 5.5068 4.9728.00001 8.8276-1.8356 11.564-5.5068 2.77-3.6712 4.1551-8.8276 4.1551-15.469m9.2114 21.727c-.00010 9.5451-2.1193 16.637-6.3579 21.276-4.2386 4.6724-10.73 7.0086-19.474 7.0087-3.2374-.00002-6.2911-.25033-9.1613-.75093-2.8702-.46727-5.657-1.2015-8.3603-2.2027v-8.9611c2.7033 1.4685 5.3733 2.5532 8.0099 3.254 2.6366.70085 5.3232 1.0513 8.06 1.0513 6.0408-.00002 10.563-1.5853 13.567-4.7559 3.0037-3.1372 4.5055-7.8931 4.5056-14.268v-4.5556c-1.9024 3.3041-4.3387 5.7738-7.309 7.4092-2.9704 1.6354-6.5248 2.453-10.663 2.453-6.8752 0-12.415-2.6199-16.621-7.8597-4.2052-5.2398-6.3078-12.182-6.3078-20.826 0-8.6774 2.1026-15.636 6.3078-20.876 4.2052-5.2398 9.7454-7.8597 16.621-7.8597 4.1384.000058 7.6928.81774 10.663 2.453 2.9703 1.6354 5.4066 4.1051 7.309 7.4092v-8.5105h9.2114v49.111"/>
		<path d="m1046.5 94.134c-4.9395.00005-8.8443 1.9358-11.714 5.8072-2.8703 3.8381-4.3054 9.1113-4.3054 15.82 0 6.7083 1.4184 11.998 4.2553 15.87 2.8702 3.8381 6.7917 5.7571 11.765 5.7571 4.906.00001 8.7941-1.9357 11.664-5.8072 2.8701-3.8714 4.3053-9.1446 4.3053-15.82 0-6.6415-1.4352-11.898-4.3053-15.769-2.8703-3.9048-6.7584-5.8572-11.664-5.8572m0-7.8097c8.0098.000058 14.301 2.6033 18.873 7.8097 4.5723 5.2065 6.8584 12.415 6.8585 21.627-.0001 9.178-2.2862 16.387-6.8585 21.627-4.5724 5.2064-10.864 7.8097-18.873 7.8097-8.0434 0-14.351-2.6032-18.924-7.8097-4.5389-5.2398-6.8084-12.449-6.8084-21.627 0-9.2114 2.2695-16.42 6.8084-21.627 4.5724-5.2064 10.88-7.8096 18.924-7.8097"/>
	</g>
	<circle stroke-width=".16385" transform="rotate(-45)" cy="66.181" cx=".0011394" r="46.796" fill="#226afe"/>
	<circle stroke-width=".099761" transform="rotate(-45)" cy="84.812" cx="-.0021003" r="28.493" fill="#eee"/>

</symbol>
<symbol id="favicon" viewBox="0 0 93.59237 93.590951">
	<circle stroke-width=".16385" transform="rotate(-45)" cy="66.179" cx=".00050268" r="46.796" fill="#226afe"/>
	<circle stroke-width=".099761" transform="rotate(-45)" cy="84.81" cx="-.0027370" r="28.493" fill="#eee"/>

</symbol>
<symbol id="mark-github" viewBox="0 0 16 16"><path fill-rule="evenodd" d="M8 0C3.58 0 0 3.58 0 8c0 3.54 2.29 6.53 5.47 7.59.4.07.55-.17.55-.38 0-.19-.01-.82-.01-1.49-2.01.37-2.53-.49-2.69-.94-.09-.23-.48-.94-.82-1.13-.28-.15-.68-.52-.01-.53.63-.01 1.08.58 1.23.82.72 1.21 1.87.87 2.33.66.07-.52.28-.87.51-1.07-1.78-.2-3.64-.89-3.64-3.95 0-.87.31-1.59.82-2.15-.08-.2-.36-1.02.08-2.12 0 0 .67-.21 2.2.82.64-.18 1.32-.27 2-.27.68 0 1.36.09 2 .27 1.53-1.04 2.2-.82 2.2-.82.44 1.1.16 1.92.08 2.12.51.56.82 1.27.82 2.15 0 3.07-1.87 3.75-3.65 3.95.29.25.54.73.54 1.48 0 1.07-.01 1.93-.01 2.2 0 .21.15.46.55.38A8.013 8.013 0 0 0 16 8c0-4.42-3.58-8-8-8z"/>
</symbol>
<symbol id="repo" viewBox="0 0 12 16"><path fill-rule="evenodd" d="M4 9H3V8h1v1zm0-3H3v1h1V6zm0-2H3v1h1V4zm0-2H3v1h1V2zm8-1v12c0 .55-.45 1-1 1H6v2l-1.5-1.5L3 16v-2H1c-.55 0-1-.45-1-1V1c0-.55.45-1 1-1h10c.55 0 1 .45 1 1zm-1 10H1v2h2v-1h3v1h5v-2zm0-10H2v9h9V1z"/>
</symbol>
<symbol id="issue-opened" viewBox="0 0 14 16"><path fill-rule="evenodd" d="M7 2.3c3.14 0 5.7 2.56 5.7 5.7s-2.56 5.7-5.7 5.7A5.71 5.71 0 0 1 1.3 8c0-3.14 2.56-5.7 5.7-5.7zM7 1C3.14 1 0 4.14 0 8s3.14 7 7 7 7-3.14 7-7-3.14-7-7-7zm1 3H6v5h2V4zm0 6H6v2h2v-2z"/>
</symbol>
<symbol id="linkedin" viewBox="0 0 64 64">
    <path fill="#fff" d="M10.305 11.119h43.119v42.847H10.305z"/>
    <path d="M12.8 51.2V24.384h8.192V51.2H12.8m8.448-34.24c.064 2.304-1.664 4.16-4.416 4.16-2.56 0-4.224-1.856-4.224-4.16 0-2.368 1.728-4.16 4.352-4.16s4.288 1.792 4.288 4.16M42.752 51.2V36.352c0-3.456-1.152-5.824-4.16-5.824-2.24 0-3.584 1.6-4.224 3.136-.192.576-.256 1.344-.256 2.112V51.2H25.92V32.96c0-3.328-.128-6.144-.192-8.576h7.104l.384 3.776h.128c1.088-1.792 3.776-4.352 8.192-4.352 5.376 0 9.472 3.648 9.472 11.584V51.2h-8.256M64 5.632C64 2.56 61.44 0 58.368 0H5.632C2.56 0 0 2.56 0 5.632v52.736C0 61.44 2.56 64 5.632 64h52.736C61.44 64 64 61.44 64 58.368V5.632" fill="#1d87bd"/>

</symbol>
<symbol id="facebook" viewBox="0 0 266.893 266.895">
    <path d="M248.08 262.31c7.854 0 14.223-6.37 14.223-14.225V18.815c0-7.857-6.368-14.224-14.223-14.224H18.81c-7.857 0-14.224 6.368-14.224 14.225v229.27c0 7.855 6.366 14.225 14.224 14.225h229.27z" fill="#3C5A99"/>
    <path d="M182.41 262.31v-99.803h33.5l5.015-38.895H182.41V98.77c0-11.262 3.127-18.936 19.275-18.936l20.596-.01V45.038c-3.56-.474-15.787-1.533-30.01-1.533-29.696 0-50.026 18.126-50.026 51.413V123.6H108.66v38.896h33.584V262.3h40.15z" fill="#FFF"/>

</symbol>
<symbol id="twitter" viewBox="0 0 341.7375 277.725">
    <path fill="#6babe1" d="M107.475 277.72C67.88 277.72 31.03 266.113 0 246.22c5.485.65 11.066.98 16.725.98 32.847 0 63.08-11.21 87.074-30.013-30.68-.566-56.574-20.836-65.495-48.69a70.083 70.083 0 0 0 13.19 1.256c6.395 0 12.59-.856 18.473-2.458-32.074-6.44-56.242-34.778-56.242-68.748 0-.296 0-.588.006-.88a69.83 69.83 0 0 0 31.756 8.768c-18.812-12.573-31.19-34.033-31.19-58.356 0-12.85 3.457-24.894 9.492-35.25 34.58 42.42 86.24 70.33 144.512 73.255a70.387 70.387 0 0 1-1.816-15.978c0-38.718 31.393-70.11 70.114-70.11 20.165 0 38.386 8.515 51.176 22.142a140.382 140.382 0 0 0 44.52-17.016c-5.233 16.372-16.35 30.112-30.826 38.79 14.182-1.695 27.695-5.464 40.27-11.04-9.4 14.06-21.29 26.408-34.986 36.293.135 3.007.202 6.03.202 9.07 0 92.65-70.52 199.488-199.475 199.488"/>

</symbol>
<symbol id="google+" viewBox="0 0 134.658 131.646">
    <path fill="#DC4A38" d="M126.52 4.11H8.14A3.938 3.938 0 0 0 4.2 8.046v115.55a3.94 3.94 0 0 0 3.94 3.942h118.37a3.94 3.94 0 0 0 3.94-3.943V8.057c0-2.176-1.77-3.94-3.94-3.94z"/>
    <path fill="#FFF" d="M70.48 71.845l-3.984-3.093c-1.213-1.006-2.872-2.334-2.872-4.765 0-2.44 1.66-3.993 3.1-5.43 4.64-3.652 9.275-7.54 9.275-15.73 0-8.423-5.3-12.854-7.84-14.956h6.848l7.19-4.516h-21.78c-5.976 0-14.588 1.414-20.893 6.62-4.752 4.1-7.07 9.752-7.07 14.84 0 8.64 6.633 17.397 18.346 17.397 1.107 0 2.317-.108 3.535-.22-.547 1.33-1.1 2.438-1.1 4.32 0 3.43 1.763 5.534 3.317 7.527-4.977.342-14.268.893-21.117 5.103-6.523 3.88-8.508 9.525-8.508 13.51 0 8.202 7.73 15.842 23.762 15.842 19.01 0 29.073-10.52 29.073-20.932 0-7.65-4.42-11.415-9.284-15.513zM56 59.107c-9.51 0-13.818-12.294-13.818-19.712 0-2.888.547-5.87 2.428-8.2 1.773-2.217 4.86-3.656 7.744-3.656 9.168 0 13.923 12.403 13.923 20.38 0 1.997-.22 5.534-2.762 8.09-1.778 1.775-4.753 3.097-7.515 3.097zm.11 44.543c-11.827 0-19.453-5.657-19.453-13.523 0-7.864 7.07-10.524 9.504-11.405 4.64-1.56 10.612-1.78 11.608-1.78 1.105 0 1.658 0 2.538.112 8.407 5.983 12.056 8.965 12.056 14.63 0 6.858-5.64 11.966-16.253 11.966zm42.283-44.712V47.863h-5.47v11.075H81.866v5.53h11.057v11.144h5.47V64.47h11.117v-5.532z"/>

</symbol>
<symbol id="youtube" viewBox="0 0 256 180">
	<path d="m101.6 123.2l69.2-35.8-69.2-36.1v71.9z" fill="#FFF"/>
	<path opacity=".12" d="m101.6 51.3l60.7 40.5 8.5-4.4-69.2-36.1z" fill="#420000"/>
	<path fill="#bf171d" d="m253.3 38.8c-1.88-13.981-8.42-29.299-23.02-33.835-16.05-4.2161-32.96-2.9887-49.4-4.1201-49.07-1.2709-98.277-1.4605-147.24 2.2613-14.07 1.1629-26.069 12.107-28.842 25.919-4.7102 19.159-4.5895 39.155-4.798 58.786.044311 20.409-.026870 41.079 4.26 61.099 2.4268 13.2 12.368 24.88 26.024 26.94 27.447 4.096 55.358 3.0724 83.032 3.9746 36.322.27585 72.726-.11654 108.94-3.0267 14.925-1.1556 26.962-13.363 29.48-27.882 5.0811-24.421 4.2467-49.587 4.1702-74.419-.32-11.935-1.22-23.848-2.6-35.7zm-151.74 84.4v-71.9l69.172 36.1-69.172 35.8z"/>

</symbol>
<symbol id="reddit" viewBox="0 0 235 235">
	<circle cx="117.5" cy="117.5" r="117.5" fill="#ff4500"/>
	<path d="m183.57 34.286c-10.059 0-18.215 8.7936-18.215 19.643 0 10.848 8.1548 19.643 18.215 19.643s18.213-8.7946 18.213-19.643c0-10.849-8.1529-19.643-18.213-19.643zm-65.596 45.713c-23.656 0-45.064 6.7888-60.541 17.754-3.6126-6.3446-10.219-10.609-17.793-10.609-11.44 0-20.713 9.6981-20.713 21.662 0 9.8602 6.3014 18.178 14.922 20.799-0.8886 3.4892-1.3535 7.0822-1.3535 10.752 0 33.335 38.271 60.357 85.479 60.357 47.209 0 85.48-27.023 85.48-60.357 0-3.6168-0.45287-7.1599-1.3164-10.602 8.1102-2.9368 13.936-10.988 13.936-20.469 0-11.963-9.2738-21.662-20.715-21.662-7.2494 0-13.619 3.9014-17.32 9.7988-15.438-10.769-36.648-17.424-60.064-17.424zm28.098 34.645c6.74 0 12.203 5.597 12.203 12.5 0 6.904-5.4641 12.5-12.203 12.5-6.74 0-12.201-5.596-12.201-12.5 0-6.903 5.4622-12.5 12.201-12.5zm-63.512 1.0723c6.74 0 12.203 5.596 12.203 12.5 0 6.903-5.4641 12.5-12.203 12.5s-12.201-5.597-12.201-12.5c0-6.904 5.4622-12.5 12.201-12.5zm-0.77734 45.711c21.537 6.9956 44.171 5.2116 67.145 0.7129-19.6 10.885-40.035 18.437-67.145-0.7129z" fill="#fff"/>
	<path d="m173.92 50.715-44.113-14.393-11.601 57.25" fill="none" stroke="#fff" stroke-width="4.9"/>

</symbol>
<symbol id="stackoverflow" viewBox="0 0 88.969391 113.4281">
    <path d="M63.277 72.606L19.852 62.073l2.107-8.685L65.384 63.92l-2.107 8.686m2.911-10.39l-39.79-20.332 4.066-7.958 39.79 20.332-4.066 7.958m6.129-10.764l-33.65-29.399 5.88-6.73 33.65 29.398-5.88 6.73m9.258-9.46L56.482 5.018 63.877 0 88.97 36.971l-7.395 5.019M62.582 83.469l-44.618-2.436.487-8.924 44.618 2.437-.487 8.923" fill="#e5712a"/>
    <path d="M71.833 104.49V67.467h8.929l.006 45.962H0l.002-46.001H8.94v37.062h62.894" fill="#999"/>
    <path d="M17.84 86.651h44.987v8.937H17.84z" fill="#e5712a"/>

</symbol>
<symbol id="upwork" viewBox="0 0 100 90">
	<rect y="-2.861e-6" width="100" height="90" fill="#6fda44" stroke-width=".94868"/>
	<path d="m72.791 20.518c-8.9288 0-15.749 5.8731-18.336 15.279-4.2257-6.5856-7.5194-14.103-9.4018-20.45h-9.4027v24.917c0 4.94-3.9977 8.9288-8.9288 8.9288-4.94 0-8.9288-3.9977-8.9288-8.9288v-24.917h-9.4018v24.917c0 10.344 8.2242 18.57 18.335 18.57 10.108 0 18.335-8.2242 18.335-18.57v-4.2275c1.8845 3.7599 4.2356 7.7576 6.8154 11.283l-5.8734 27.502h9.6375l4.2353-19.98c3.7597 2.3511 7.9959 3.7597 12.929 3.7597 10.342 0 18.805-8.4619 18.805-19.274 0-10.344-8.4619-18.806-18.805-18.806zm0 28.442c-3.7599 0-7.5197-1.6467-10.578-4.2356l0.94229-3.7599v-0.27444c0.73185-3.9977 2.8177-10.814 9.8722-10.814 5.1687 0 9.4027 4.2356 9.4027 9.4036-0.27444 5.4065-4.7021 9.6375-9.6375 9.6375z" fill="#fff" stroke-width="2.3506"/>

</symbol>
<symbol id="creative-commons" viewBox="0 0 119.99902 42.001411">
    <g transform="matrix(.99378 0 0 .99367 -177.694 -74.436)">
        <path fill="#aab2ab" d="M182.24 75.39l114.06.203c1.59 0 3.02-.237 3.02 3.18l-.14 37.567H179.36V78.634c0-1.685.16-3.244 2.88-3.244z"/>
        <path d="M213.544 94.607c.01 7.577-6.136 13.723-13.713 13.728-7.576.004-13.722-6.135-13.73-13.712v-.016c0-7.58 6.136-13.724 13.713-13.73 7.577-.004 13.723 6.136 13.73 13.713v.017z" fill="#fff"/>
        <path d="M210.97 83.428c3.046 3.047 4.565 6.774 4.565 11.182 0 4.4-1.493 8.092-4.487 11.05-3.17 3.126-6.922 4.69-11.243 4.69-4.278 0-7.96-1.555-11.06-4.645-3.1-3.1-4.644-6.8-4.644-11.095 0-4.303 1.546-8.03 4.645-11.182 3.02-3.038 6.704-4.565 11.06-4.565 4.4 0 8.126 1.527 11.164 4.565zm-20.174 2.05c-2.575 2.594-3.858 5.64-3.858 9.132s1.274 6.512 3.814 9.052c2.55 2.55 5.578 3.824 9.096 3.824s6.573-1.292 9.166-3.86c2.47-2.39 3.7-5.393 3.7-9.016 0-3.596-1.247-6.643-3.752-9.148-2.506-2.514-5.544-3.762-9.114-3.762s-6.59 1.257-9.052 3.78zm6.765 7.596c-.392-.856-.976-1.283-1.762-1.283-1.388 0-2.086.935-2.086 2.803s.698 2.802 2.086 2.802c.916 0 1.57-.463 1.964-1.37l1.92 1.02c-.916 1.633-2.295 2.445-4.13 2.445-1.413 0-2.54-.428-3.394-1.3-.847-.865-1.275-2.06-1.275-3.58 0-1.5.437-2.688 1.318-3.57.874-.882 1.966-1.318 3.275-1.318 1.938 0 3.326.76 4.172 2.287l-2.086 1.064zm9.045 0c-.393-.856-.97-1.283-1.73-1.283-1.413 0-2.12.935-2.12 2.803s.707 2.802 2.12 2.802c.918 0 1.564-.463 1.93-1.37l1.964 1.02c-.917 1.633-2.288 2.445-4.12 2.445-1.406 0-2.54-.428-3.388-1.3-.855-.865-1.274-2.06-1.274-3.58 0-1.5.428-2.688 1.292-3.57s1.964-1.318 3.29-1.318c1.94 0 3.327.76 4.165 2.287l-2.13 1.064z"/>
        <path d="M297.3 74.91H181.07a2.26 2.26 0 0 0-2.26 2.262v39.498c0 .28.22.51.51.51h119.73c.28 0 .51-.23.51-.51V77.172c0-1.247-1.02-2.26-2.26-2.26zm-116.23 1.022H297.3c.68 0 1.24.556 1.24 1.24v27.418h-83.08c-3.04 5.51-8.91 9.24-15.64 9.24-6.74 0-12.6-3.73-15.65-9.24h-4.34V77.172c0-.684.55-1.24 1.24-1.24z"/>
        <path d="M265.61 112.88c.08.16.19.29.32.38.13.1.29.17.47.22.18.04.37.07.56.07.13 0 .27-.01.42-.04.15-.02.29-.06.42-.12s.24-.15.32-.26a.63.63 0 0 0 .13-.41c0-.18-.05-.33-.17-.44-.11-.12-.26-.21-.45-.28-.19-.08-.4-.14-.63-.2-.24-.06-.48-.12-.72-.19-.25-.06-.49-.13-.73-.22-.23-.09-.45-.21-.63-.35-.19-.15-.34-.33-.45-.54-.12-.22-.18-.48-.18-.78 0-.34.08-.64.22-.89.15-.25.34-.46.58-.63.23-.17.5-.3.8-.38s.59-.12.89-.12c.35 0 .69.04 1.01.12.31.08.6.2.85.38.25.17.44.4.59.67s.22.6.22.98h-1.42c-.01-.2-.06-.36-.13-.49s-.16-.24-.28-.31c-.12-.08-.25-.13-.4-.16-.16-.03-.32-.05-.5-.05-.12 0-.24.02-.35.04-.12.03-.23.07-.32.13-.1.06-.18.14-.24.23-.06.1-.09.22-.09.36 0 .13.02.24.07.32s.15.15.29.22c.15.07.35.14.61.21s.59.15 1.01.26c.12.02.3.07.52.13.22.07.44.17.65.32.22.14.41.33.57.57s.24.55.24.92c0 .31-.06.59-.18.85s-.3.49-.53.68-.52.33-.87.44c-.34.11-.74.16-1.2.16-.36 0-.72-.05-1.06-.14-.35-.09-.65-.23-.92-.42-.26-.2-.47-.44-.63-.74-.15-.3-.23-.65-.22-1.07h1.42c0 .23.04.42.12.57zm8.26-5.01l2.49 6.66h-1.52l-.51-1.48h-2.49l-.52 1.48h-1.48l2.52-6.66h1.51zm.08 4.08l-.84-2.44h-.02l-.87 2.44h1.73zm-34.77-4.08c.32 0 .61.03.87.08.26.06.48.15.67.28.19.12.33.29.44.5.1.22.15.48.15.79 0 .33-.08.61-.23.84-.15.22-.38.4-.68.55.41.12.72.32.93.62.2.29.3.65.3 1.07 0 .33-.07.63-.2.87-.13.25-.3.45-.52.6-.23.16-.48.27-.76.35-.29.07-.58.11-.88.11h-3.23v-6.66h3.14zm-.19 2.69c.26 0 .48-.06.65-.18.16-.13.25-.33.25-.61 0-.15-.03-.28-.09-.38a.544.544 0 0 0-.22-.23c-.09-.06-.2-.1-.32-.12s-.25-.03-.38-.03h-1.37v1.55h1.48zm.09 2.83c.14 0 .28-.01.41-.04s.24-.08.34-.14c.1-.07.18-.16.24-.27s.09-.25.09-.43c0-.34-.1-.58-.29-.73-.19-.14-.45-.22-.77-.22h-1.59v1.83h1.57zm2.81-5.52h1.64l1.56 2.63 1.55-2.63h1.64l-2.48 4.1v2.56h-1.46v-2.59l-2.45-4.07zm39.96-17.89c.005 5.888-4.764 10.656-10.645 10.662S260.55 95.88 260.55 90v-.02c-.008-5.88 4.76-10.65 10.642-10.656s10.657 4.762 10.657 10.644v.012z" fill="#fff"/>
        <path d="M271.123 78.314c-3.232 0-5.97 1.128-8.207 3.383-2.3 2.334-3.45 5.096-3.45 8.285s1.15 5.933 3.45 8.227c2.294 2.294 5.03 3.442 8.206 3.442 3.213 0 5.994-1.158 8.357-3.472 2.217-2.198 3.324-4.93 3.324-8.198 0-3.266-1.125-6.03-3.388-8.285-2.256-2.255-5.025-3.383-8.294-3.383zm.03 2.1c2.644 0 4.894.933 6.744 2.8 1.87 1.848 2.807 4.104 2.807 6.768 0 2.684-.913 4.91-2.744 6.68-1.93 1.907-4.2 2.86-6.806 2.86-2.613 0-4.863-.943-6.75-2.83-1.888-1.886-2.83-4.123-2.83-6.71-.002-2.586.948-4.842 2.86-6.768 1.832-1.867 4.07-2.8 6.72-2.8z"/>
        <path d="M265.947 88.336c.47-2.937 2.538-4.505 5.125-4.505 3.725 0 5.994 2.704 5.994 6.308 0 3.517-2.412 6.25-6.05 6.25-2.506 0-4.744-1.54-5.156-4.564h2.944c.087 1.57 1.106 2.122 2.562 2.122 1.656 0 2.73-1.54 2.73-3.895 0-2.47-.93-3.777-2.674-3.777-1.28 0-2.387.465-2.618 2.063l.856-.005-2.32 2.315-2.31-2.314.917.006z"/>
        <circle cy="90.225" cx="242.56" r="10.806" fill="#fff"/>
        <path d="M245.69 87.098a.754.754 0 0 0-.75-.754h-4.78c-.41 0-.75.337-.75.754v4.773h1.33v5.653h3.62V91.87h1.33V87.1z"/>
        <circle cy="84.083" cx="242.55" r="1.632"/>
        <path fill-rule="evenodd" clip-rule="evenodd" d="M242.53 78.318c-3.23 0-5.96 1.128-8.2 3.384-2.3 2.333-3.45 5.095-3.45 8.284s1.15 5.932 3.45 8.227c2.29 2.297 5.03 3.447 8.2 3.447 3.22 0 6-1.16 8.36-3.476 2.22-2.197 3.33-4.93 3.33-8.198 0-3.267-1.13-6.028-3.39-8.284s-5.02-3.384-8.3-3.384zm.03 2.1c2.65 0 4.9.934 6.75 2.8 1.87 1.848 2.81 4.104 2.81 6.768 0 2.684-.92 4.91-2.75 6.68-1.93 1.907-4.2 2.86-6.81 2.86s-4.85-.943-6.74-2.83c-1.89-1.886-2.84-4.123-2.84-6.71 0-2.586.96-4.842 2.87-6.767 1.83-1.868 4.07-2.802 6.71-2.802z"/>
    </g>

</symbol>
<symbol id="location" viewBox="0 0 16 16.003361">
    <title>
        Gnome Symbolic Icon Theme
    </title>
    <path d="M8 0a5 5 0 0 0-5 5c0 .173.014.332.031.5.014.167.036.336.063.5C3.666 9.514 6 12.003 8 14.003c2-2 4.334-4.489 4.906-8.003.027-.164.049-.333.063-.5.017-.168.03-.327.03-.5a5 5 0 0 0-5-5zm0 3a2 2 0 1 1 0 4 2 2 0 0 1 0-4z" solid-color="#000000"/>

</symbol>
<symbol id="call-start" viewBox="0 0 16 16">
    <title>
        Gnome Symbolic Icon Theme
    </title>
    <path d="M13.032 1c.534 0 .969.427.969.969v.062c-.017 6.613-5.383 11.97-12 11.97H1.97c-.545 0-.97-.447-.97-1v-3c0-.555.447-1 1-1h2c.555 0 1 .445 1 1v.468A8.967 8.967 0 0 0 10.47 5H10c-.553 0-1-.446-1-1V2c0-.554.447-1 1-1h3.032z"/>

</symbol>
<symbol id="network-workgroup" viewBox="0 0 16 16">
    <title>
        Gnome Symbolic Icon Theme
    </title>
    <path d="M1.75 4C.798 4 0 4.798 0 5.75v4.5C0 11.202.798 12 1.75 12h.125l-.781 1.563L.375 15h9.25l-.719-1.438L8.125 12h.125c.952 0 1.75-.798 1.75-1.75v-4.5C10 4.798 9.202 4 8.25 4h-6.5zM2 6h6v4H2V6z" overflow="visible"/>
    <path d="M7.75 1C6.798 1 6 1.798 6 2.75V3h8v4h-3v3.25c0 .66-.252 1.27-.656 1.75h5.281l-1.5-3h.125C15.202 9 16 8.202 16 7.25v-4.5C16 1.798 15.202 1 14.25 1h-6.5z" overflow="visible"/>

</symbol>
<symbol id="top" viewBox="0 0 16 16">
    <title>
        Gnome Symbolic Icon Theme
    </title>
    <g transform="translate(-221 -747)">
        <rect transform="matrix(0 -1 -1 0 0 0)" x="-752" y="-235" width="2" height="12" rx="0" ry="0"/>
        <path d="M229 752.56l-5.719 5.719a1.01 1.01 0 0 0-.281.719v1h1c.256 0 .523-.086.719-.282l4.28-4.28 4.282 4.28c.196.196.463.282.719.282h1v-1a1.01 1.01 0 0 0-.281-.72z"/>
    </g>

</symbol>
<symbol id="bottom" viewBox="0 0 16 16">
    <title>
        Gnome Symbolic Icon Theme
    </title>
    <g transform="translate(-161 -747)">
        <rect transform="rotate(90)" x="758" y="-175" width="2" height="12" rx="0" ry="0"/>
        <path d="M169 757.44l-5.719-5.719a1.01 1.01 0 0 1-.281-.719v-1h1c.256 0 .523.086.719.282l4.28 4.28 4.282-4.28a1.01 1.01 0 0 1 .719-.282h1v1c0 .256-.086.523-.281.72z"/>
    </g>

</symbol>
<symbol id="go-down" viewBox="0 0 16 16">
    <title>
        Gnome Symbolic Icon Theme
    </title>
    <path d="M8 12.44L2.281 6.721A1.01 1.01 0 0 1 2 6.003v-1h1c.256 0 .523.085.719.28l4.28 4.282 4.282-4.281A1.01 1.01 0 0 1 13 5.003h1v1c0 .255-.086.522-.281.718z"/>

</symbol>
<symbol id="next" viewBox="0 0 16 16">
    <title>
        Gnome Symbolic Icon Theme
    </title>
    <path d="M11.44 8l-5.719 5.719a1.01 1.01 0 0 1-.719.281h-1v-1c0-.256.086-.523.282-.719l4.28-4.28-4.28-4.282A1.01 1.01 0 0 1 4.002 3V2h1c.256 0 .523.086.72.281z"/>

</symbol>
<symbol id="prev" viewBox="0 0 16 16">
    <title>
        Gnome Symbolic Icon Theme
    </title>
    <path d="M4.56 8l5.719 5.719c.196.196.463.281.719.281h1v-1a1.01 1.01 0 0 0-.282-.719l-4.28-4.28 4.28-4.282A1.01 1.01 0 0 0 11.998 3V2h-1a1.01 1.01 0 0 0-.72.281z"/>

</symbol>
<symbol id="refresh" viewBox="0 0 16 16">
    <title>
        Gnome Symbolic Icon Theme
    </title>
    <path d="M6.72 2c-.192.009-.372.035-.563.063A6.03 6.03 0 0 0 2.19 4.405C.207 7.048.766 10.831 3.407 12.813c2.642 1.98 6.425 1.422 8.407-1.22.122-.17.189-.382.187-.593v-1h-1a1.024 1.024 0 0 0-.812.406c-1.333 1.777-3.817 2.114-5.594.781C2.818 9.855 2.48 7.37 3.814 5.594 5.146 3.817 7.63 3.48 9.407 4.812c.43.323.77.733 1.032 1.188H9a1 1 0 0 0-1 1v1h6V2h-1a1 1 0 0 0-1 1v1.687A5.966 5.966 0 0 0 6.72 2z"/>

</symbol>
<symbol id="share" viewBox="0 0 16 16">
    <title>
        Gnome Symbolic Icon Theme
    </title>
    <g>
        <path d="M5.969 7.969a2.969 2.969 0 1 1-5.938 0 2.969 2.969 0 1 1 5.938 0zm9.969 5a2.969 2.969 0 1 1-5.938 0 2.969 2.969 0 1 1 5.938 0zm0-10a2.969 2.969 0 1 1-5.938 0 2.969 2.969 0 1 1 5.938 0z" overflow="visible"/>
        <path d="M12.625 2.156L2.562 7.031.75 7.938l1.812.906 10.032 5.062.906-1.812-8.22-4.156 8.219-4-.875-1.782z" overflow="visible"/>
    </g>

</symbol>
<symbol id="close" viewBox="0 0 16 16">
    <title>
        Gnome Symbolic Icon Theme
    </title>
    <path d="M4 4h1.031c.255.011.51.129.688.313L8 6.592l2.313-2.28c.265-.231.446-.306.687-.313h1v1c0 .286-.034.55-.25.75L9.469 8.031l2.25 2.25c.188.188.281.454.281.719v1h-1c-.265 0-.53-.093-.719-.281L8 9.438l-2.281 2.28A1.015 1.015 0 0 1 5 12H4v-1c0-.265.093-.53.281-.719l2.282-2.25L4.28 5.75A.909.909 0 0 1 4 5V4z"/>

</symbol>
<symbol id="pin" viewBox="0 0 16 16">
    <title>
        Gnome Symbolic Icon Theme
    </title>
    <path d="M10 3L7 5 4 4v7l3-1 3 2V8l5-.483L10 7z" solid-color="#000000"/>

</symbol>
<symbol id="recent" viewBox="0 0 16 16">
    <title>
        Gnome Symbolic Icon Theme
    </title>
    <path d="M7.5.01A7.492 7.492 0 0 0 .013 7.497c0 4.13 3.357 7.486 7.487 7.486s7.487-3.356 7.487-7.486A7.492 7.492 0 0 0 7.5.01zm0 1.973c3.05 0 5.513 2.464 5.513 5.514S10.55 13.01 7.5 13.01s-5.513-2.464-5.513-5.513S4.45 1.983 7.5 1.983z"/>
    <path d="M10.406 4a.5.5 0 0 0-.25.156L7.5 6.812 5.844 5.156a.5.5 0 1 0-.688.688l2 2a.5.5 0 0 0 .688 0l3-3A.5.5 0 0 0 10.406 4z"/>

</symbol>
<symbol id="engineering" viewBox="0 0 16 16">
    <title>
        Gnome Symbolic Icon Theme
    </title>
    <g>
        <path d="M7.997 8c-3.999 0-5.998 3-5.998 6H.25c-.25 0-.25.157-.25.25v1.5c0 .25.138.25.25.25h15.494c.195.006.25-.13.25-.25v-1.5c.021-.146 0-.25-.25-.25h-1.75c0-3-1.999-6-5.997-6zm0 3c2.35 0 2.999 1.762 2.999 3H4.998c0-1.198.703-3 2.999-3z" fill-rule="evenodd"/>
        <path d="M14.989.6a3.652 3.652 0 0 0-.967-.561l-.021 2.232c-.005.458-.452.729-1.006.729h-1c-.553-.007-1.003-.31-.998-.768L11.018 0a3.646 3.646 0 0 0-.977.536c-1.377 1.114-1.395 2.95-.04 4.098.284.24.624.42.967.562.028.011.028 2.054.028 2.054C12.486 8 13.346 9 13.995 10V5.252a3.55 3.55 0 0 0 .954-.554c1.377-1.114 1.395-2.949.04-4.098z" overflow="visible"/>
    </g>

</symbol>
<symbol id="avatar-default" viewBox="0 0 16 16">
    <title>
        Gnome Symbolic Icon Theme
    </title>
    <g>
        <path d="M10.555 8.094C9.849 8.717 9.015 9 8 9c-1.016 0-1.853-.29-2.559-.914-1.109.363-2.436 1.288-2.437 2.902L3 14c0 .554.446 1 1 1h8c.554 0 1-.446 1-1v-3c0-1.387-1.102-2.556-2.445-2.906z"/>
        <path d="M11 5a3 3 0 1 1-6 0 3 3 0 1 1 6 0z" overflow="visible"/>
    </g>

</symbol>
<symbol id="mention" viewBox="0 0 14 16"><path fill-rule="evenodd" d="M6.58 15c1.25 0 2.52-.31 3.56-.94l-.42-.94c-.84.52-1.89.83-3.03.83-3.23 0-5.64-2.08-5.64-5.72 0-4.37 3.23-7.18 6.58-7.18 3.45 0 5.22 2.19 5.22 5.2 0 2.39-1.34 3.86-2.5 3.86-1.05 0-1.36-.73-1.05-2.19l.73-3.75H8.98l-.11.72c-.41-.63-.94-.83-1.56-.83-2.19 0-3.66 2.39-3.66 4.38 0 1.67.94 2.61 2.3 2.61.84 0 1.67-.53 2.3-1.25.11.94.94 1.45 1.98 1.45 1.67 0 3.77-1.67 3.77-5C14 2.61 11.59 0 7.83 0 3.66 0 0 3.33 0 8.33 0 12.71 2.92 15 6.58 15zm-.31-5c-.73 0-1.36-.52-1.36-1.67 0-1.45.94-3.22 2.41-3.22.52 0 .84.2 1.25.83l-.52 3.02c-.63.73-1.25 1.05-1.78 1.05V10z"/>
</symbol>
<symbol id="password" viewBox="0 0 16 16">
    <title>
        Gnome Symbolic Icon Theme
    </title>
    <g>
        <path d="M5 3C2.25 3 0 5.25 0 8s2.25 5 5 5c1.586 0 2.903-.845 3.813-2h5.593l.22-.75 1.03-4L15.97 5H8.813C7.903 3.845 6.586 3 5 3zm0 2c1.116 0 2.038.595 2.563 1.5l.312.5h5.531l-.53 2H7.874l-.312.5C7.038 10.405 6.116 11 5 11c-1.669 0-3-1.331-3-3s1.331-3 3-3z" overflow="visible"/>
        <path d="M14.498 8H9l-.563 2H14z" opacity=".35" overflow="visible"/>
        <path d="M5 8a1 1 0 1 1-2 0 1 1 0 1 1 2 0z" overflow="visible"/>
    </g>

</symbol>
<symbol id="link" viewBox="0 0 16 16"><path fill-rule="evenodd" d="M4 9h1v1H4c-1.5 0-3-1.69-3-3.5S2.55 3 4 3h4c1.45 0 3 1.69 3 3.5 0 1.41-.91 2.72-2 3.25V8.59c.58-.45 1-1.27 1-2.09C10 5.22 8.98 4 8 4H4c-.98 0-2 1.22-2 2.5S3 9 4 9zm9-3h-1v1h1c1 0 2 1.22 2 2.5S13.98 12 13 12H9c-.98 0-2-1.22-2-2.5 0-.83.42-1.64 1-2.09V6.25c-1.09.53-2 1.84-2 3.25C6 11.31 7.55 13 9 13h4c1.45 0 3-1.69 3-3.5S14.5 6 13 6z"/>
</symbol>
<symbol id="link-external" viewBox="0 0 12 16"><path fill-rule="evenodd" d="M11 10h1v3c0 .55-.45 1-1 1H1c-.55 0-1-.45-1-1V3c0-.55.45-1 1-1h3v1H1v10h10v-3zM6 2l2.25 2.25L5 7.5 6.5 9l3.25-3.25L12 8V2H6z"/>
</symbol>
<symbol id="organization" viewBox="0 0 16 16"><path fill-rule="evenodd" d="M16 12.999c0 .439-.45 1-1 1H7.995c-.539 0-.994-.447-.995-.999H1c-.54 0-1-.561-1-1 0-2.634 3-4 3-4s.229-.409 0-1c-.841-.621-1.058-.59-1-3 .058-2.419 1.367-3 2.5-3s2.442.58 2.5 3c.058 2.41-.159 2.379-1 3-.229.59 0 1 0 1s1.549.711 2.42 2.088C9.196 9.369 10 8.999 10 8.999s.229-.409 0-1c-.841-.62-1.058-.59-1-3 .058-2.419 1.367-3 2.5-3s2.437.581 2.495 3c.059 2.41-.158 2.38-1 3-.229.59 0 1 0 1s3.005 1.366 3.005 4"/>
</symbol>
<symbol id="mail-send" viewBox="0 0 16 16">
    <title>
        Gnome Symbolic Icon Theme
    </title>
    <g transform="translate(-360 -786)">
        <path d="M361 786v2a1 1 0 0 1 0 2v1a1 1 0 1 1 0 2v1a1 1 0 0 1 0 2v1a1 1 0 0 1 0 2v2h2a1 1 0 0 1 2 0h1a1 1 0 0 1 2 0h1a1 1 0 0 1 2 0h1a1 1 0 1 1 2 0h2v-2a1 1 0 1 1 0-2v-1a1 1 0 1 1 0-2v-1a1 1 0 1 1 0-2v-1a1 1 0 1 1 0-2v-2h-2a1 1 0 1 1-2 0h-1a1 1 0 1 1-2 0h-1a1 1 0 0 1-2 0h-1a1 1 0 0 1-2 0zm2 2h11v11h-2v-2.063c0-1.066-.779-1.98-1.719-2.25-.494.48-1.07.688-1.781.688s-1.288-.208-1.781-.688c-.777.28-1.718.977-1.719 2.22V799h-2z"/>
        <circle transform="translate(322.81 476.15) scale(.92307)" cx="49.5" cy="342.5" r="2.5"/>
    </g>

</symbol>
<symbol id="mail-unread" viewBox="0 0 16 16">
    <title>
        Gnome Symbolic Icon Theme
    </title>
    <g>
        <path d="M2.781 4a1 1 0 0 0-.406 1.781l5 4 .625.5.625-.5 5-4a1 1 0 1 0-1.25-1.562L8 7.719l-4.375-3.5A1 1 0 0 0 2.781 4z" overflow="visible"/>
        <path d="M1.906 3A1 1 0 0 0 1 4v9a1 1 0 0 0 1 1h12a1 1 0 0 0 1-1V4a1 1 0 0 0-1-1H2a1 1 0 0 0-.094 0zM3 5h10v7H3V5z" overflow="visible"/>
    </g>

</symbol>
<symbol id="home" viewBox="0 0 16.013 16">
    <title>
        Gnome Symbolic Icon Theme
    </title>
    <g transform="translate(-562.994 -175)">
        <title transform="translate(405.62 -584.902)">
            go-home
        </title>
        <path d="M565.781 180a1 1 0 0 0-.781 1v7a1 1 0 0 0 1 1h10a1 1 0 0 0 1-1v-7a1 1 0 1 0-2 0v6h-8v-6a1 1 0 0 0-1.219-1z" overflow="visible"/>
        <path d="M570.906 176a1 1 0 0 0-.5.188l-7 5a1.006 1.006 0 1 0 1.188 1.625L571 178.25l6.406 4.563a1.006 1.006 0 1 0 1.188-1.625l-7-5a1 1 0 0 0-.688-.188z" overflow="visible"/>
        <path overflow="visible" d="M569 183h3v6h-3z"/>
        <rect height="1" rx="0" ry="1" transform="scale(-1 1)" width="1" x="-579" y="182"/>
        <rect height="1" rx="0" ry="1" transform="scale(-1 1)" width="1" x="-564" y="182"/>
    </g>

</symbol>
<symbol id="menu" viewBox="0 0 16 16">
    <title>
        Gnome Symbolic Icon Theme
    </title>
    <path d="M3 3h10v2H3zM3 7h10v2H3zM3 11h10v2H3z"/>

</symbol>
<symbol id="search" viewBox="0 0 16 16"><path fill-rule="evenodd" d="M15.7 13.3l-3.81-3.83A5.93 5.93 0 0 0 13 6c0-3.31-2.69-6-6-6S1 2.69 1 6s2.69 6 6 6c1.3 0 2.48-.41 3.47-1.11l3.83 3.81c.19.2.45.3.7.3.25 0 .52-.09.7-.3a.996.996 0 0 0 0-1.41v.01zM7 10.7c-2.59 0-4.7-2.11-4.7-4.7 0-2.59 2.11-4.7 4.7-4.7 2.59 0 4.7 2.11 4.7 4.7 0 2.59-2.11 4.7-4.7 4.7z"/>
</symbol>
<symbol id="check" viewBox="0 0 12 16"><path fill-rule="evenodd" d="M12 5l-8 8-4-4 1.5-1.5L4 10l6.5-6.5z"/>
</symbol>
<symbol id="edit-clear" viewBox="0 0 16 16">
    <title>
        Gnome Symbolic Icon Theme
    </title>
    <path d="M6 2L0 8l6 6h9.035A1.03 1.03 0 0 0 16 13V3c0-.53-.346-1-1.009-1zm1 3h1.031c.255.011.51.129.688.313L10 6.593l1.313-1.28c.265-.231.446-.306.687-.313h1v1c0 .286-.034.55-.25.75l-1.281 1.281 1.25 1.25c.188.188.281.454.281.719v1h-1c-.265 0-.53-.093-.719-.281l-1.28-1.281-1.282 1.28A1.015 1.015 0 0 1 8 11H7v-1c0-.265.093-.53.281-.719l1.282-1.25L7.28 6.75A.909.909 0 0 1 7 6z"/>

</symbol>
<symbol id="comments" viewBox="0 0 16 16"><path fill-rule="evenodd" d="M15 1H6c-.55 0-1 .45-1 1v2H1c-.55 0-1 .45-1 1v6c0 .55.45 1 1 1h1v3l3-3h4c.55 0 1-.45 1-1V9h1l3 3V9h1c.55 0 1-.45 1-1V2c0-.55-.45-1-1-1zM9 11H4.5L3 12.5V11H1V5h4v3c0 .55.45 1 1 1h3v2zm6-3h-2v1.5L11.5 8H6V2h9v6z"/>
</symbol>
<symbol id="view-more" viewBox="0 0 16 16">
    <title>
        Gnome Symbolic Icon Theme
    </title>
    <g transform="translate(-121 -867)">
        <rect x="127" y="867" width="4" height="4" rx=".385" ry=".502"/>
        <rect x="127" y="873" width="4" height="4" rx=".385" ry=".502"/>
        <rect x="127" y="879" width="4" height="4" rx=".385" ry=".502"/>
    </g>

</symbol>
<symbol id="tag" viewBox="0 0 14 16"><path fill-rule="evenodd" d="M7.73 1.73C7.26 1.26 6.62 1 5.96 1H3.5C2.13 1 1 2.13 1 3.5v2.47c0 .66.27 1.3.73 1.77l6.06 6.06c.39.39 1.02.39 1.41 0l4.59-4.59a.996.996 0 0 0 0-1.41L7.73 1.73zM2.38 7.09c-.31-.3-.47-.7-.47-1.13V3.5c0-.88.72-1.59 1.59-1.59h2.47c.42 0 .83.16 1.13.47l6.14 6.13-4.73 4.73-6.13-6.15zM3.01 3h2v2H3V3h.01z"/>
</symbol>
<symbol id="preferences" viewBox="0 0 16 16">
    <title>
        Gnome Symbolic Icon Theme
    </title>
    <g>
        <path d="M3.549.09a3.5 3.5 0 0 0-1.143.216l1.885 1.88c.387.386.387 1 0 1.387l-.711.708a.98.98 0 0 1-1.39 0L.303 2.401a3.473 3.473 0 0 0-.216 1.14 3.456 3.456 0 0 0 3.46 3.452 3.5 3.5 0 0 0 1.144-.216l1.174 1.171a2.472 2.465 0 0 1 .062 0l2.07-2.064-1.205-1.202a3.46 3.46 0 0 0 .217-1.14A3.456 3.456 0 0 0 3.549.09zm6.55 7.89l-2.07 2.064a2.472 2.465 0 0 1 .031.092l1.144 1.14a3.474 3.474 0 0 0-.217 1.14 3.456 3.456 0 0 0 3.461 3.452c.434 0 .854-.102 1.236-.247l-2.008-2.003a1.01 1.01 0 0 1 0-1.417l.68-.678a1.03 1.03 0 0 1 .71-.308c.253 0 .517.115.71.308l1.947 1.941c.105-.33.186-.683.186-1.047a3.456 3.456 0 0 0-3.46-3.452 3.5 3.5 0 0 0-1.144.216L10.1 7.979z" overflow="visible"/>
        <path d="M13.858 0l-1.542 1.438c-.452.42-.53 1.148-.267 1.706L6.161 9.14a1.492 1.488 0 0 0-.031 0 1.492 1.488 0 0 0-.84-.148 1.492 1.488 0 0 0-.867.44L.477 13.43a1.494 1.49 0 1 0 2.13 2.09l3.946-3.997a1.492 1.488 0 0 0 .297-1.738l5.888-5.965c.558.249 1.273.147 1.707-.292l1.417-1.56L13.858 0z" overflow="visible"/>
    </g>

</symbol>
<symbol id="web-browser" viewBox="0 0 16 16.004">
    <title>
        Gnome Symbolic Icon Theme
    </title>
    <g>
        <path d="M8 4.846v10.38l-2.344-2.288-1.34 2.734c-.327.74-2.033.145-1.548-.844l1.326-2.839H1.136L8 4.846z" display="block" overflow="visible"/>
        <path d="M7.156 1.063C3.33 1.522.578 5.02 1.063 8.843c.131 1.035.293 1.383.293 1.383l1.675-1.632A4.992 4.992 0 0 1 7.406 3.03a4.992 4.992 0 0 1 5.563 4.375c.314 2.608-1.391 5.025-3.969 5.532l.031 2s.521-.106.624-.131c3.416-.834 5.706-4.128 5.283-7.65-.46-3.827-3.955-6.555-7.782-6.095z" overflow="visible"/>
        <path d="M4.113 7.815v-.206l-.198.019.05-.393h-.117l-.115.15-.116.056-.165-.093-.017-.206.033-.225.248-.186h.199l.033-.113.247.056.182.225.033-.374.314-.262.116-.28.231-.094.133-.187.297-.056.149-.225h-.446l.28-.13h.199l.28-.094.034-.112-.1-.094-.115-.037.033-.112-.083-.169-.198.075.033-.15-.231-.13-.182.317.017.113-.182.075-.116.243-.05-.225-.313-.13-.05-.169.413-.243.182-.168.017-.206-.1-.056L4.84 4l-.082.206s-.139.027-.174.036C4.13 4.66 3.214 5.562 3 7.266c.008.04.155.268.155.268l.347.206.347.093m3.966-4.3l-.43-.168-.496.056-.611.168-.116.112.38.262v.15l-.149.15.199.392.132-.075.165-.262a5.51 5.51 0 0 0 .727-.28l.199-.505m2.529.342l-.375.094-.219.156v.125l-.375.25.094.344.219-.157.125.157.156.093.094-.28L10 4.5l.063-.094.218-.187h.094l-.094.218v.188c.09-.024.16-.051.25-.063l-.25.188v.125l-.312.219-.281-.063v-.156l-.125.062.062.157h-.219l-.125.218-.156.157-.094.03v.188l.032.157H9.03v.53l.063-.03.094-.219L9.375 6l.031-.094.282-.062.156.187.187.094-.093.187.156-.03.062-.22-.187-.218h.062l.22.156.03.219.157.219.062-.313.094-.031c.096.1.169.231.25.344h.281l.188.125-.094.093-.156.157h-.25l-.344-.094h-.188l-.125.156-.343-.375-.25-.062-.375.062-.157.094V9l.032.031.25-.156.093.094h.281l.125.156-.093.312.187.188V10l.125.25-.093.25c-.01.161 0 .307 0 .469.08.219.143.435.218.656l.063.344v.187h.125l.219-.125h.25l.375-.437-.032-.157.25-.218-.187-.188.219-.187.218-.125.094-.125-.062-.25V9.75l.187-.375.188-.25.25-.563v-.156c-.117.015-.23.023-.344.031-.072.005-.145 0-.219 0a7.442 7.442 0 0 1-.312-.78l-.157-.188-.093-.313.062-.062.219.25.25.562.156.156-.062.22.156.155.25-.25.312-.218.157-.188v-.219c-.04-.073-.055-.145-.094-.218l-.156.187-.125-.156-.188-.125v-.281l.219.218.219-.03c.101.091.192.207.28.312L13 7.28c0-.174-.2-1.02-.625-1.75S11.22 4.125 11.22 4.125l-.063.094-.218.218-.25-.25h.25l.125-.125-.47-.093-.25-.094z" opacity=".3" overflow="visible"/>
    </g>

</symbol>
<symbol id="calendar" viewBox="0 0 14 16"><path fill-rule="evenodd" d="M13 2h-1v1.5c0 .28-.22.5-.5.5h-2c-.28 0-.5-.22-.5-.5V2H6v1.5c0 .28-.22.5-.5.5h-2c-.28 0-.5-.22-.5-.5V2H2c-.55 0-1 .45-1 1v11c0 .55.45 1 1 1h11c.55 0 1-.45 1-1V3c0-.55-.45-1-1-1zm0 12H2V5h11v9zM5 3H4V1h1v2zm6 0h-1V1h1v2zM6 7H5V6h1v1zm2 0H7V6h1v1zm2 0H9V6h1v1zm2 0h-1V6h1v1zM4 9H3V8h1v1zm2 0H5V8h1v1zm2 0H7V8h1v1zm2 0H9V8h1v1zm2 0h-1V8h1v1zm-8 2H3v-1h1v1zm2 0H5v-1h1v1zm2 0H7v-1h1v1zm2 0H9v-1h1v1zm2 0h-1v-1h1v1zm-8 2H3v-1h1v1zm2 0H5v-1h1v1zm2 0H7v-1h1v1zm2 0H9v-1h1v1z"/>
</symbol>
<symbol id="note" viewBox="0 0 14 16"><path fill-rule="evenodd" d="M3 10h4V9H3v1zm0-2h6V7H3v1zm0-2h8V5H3v1zm10 6H1V3h12v9zM1 2c-.55 0-1 .45-1 1v9c0 .55.45 1 1 1h12c.55 0 1-.45 1-1V3c0-.55-.45-1-1-1H1z"/>
</symbol>
<symbol id="rss" viewBox="0 0 16 16">
    <title>
        Gnome Symbolic Icon Theme
    </title>
    <g>
        <path d="M6 12a2 2 0 1 1-4 0 2 2 0 1 1 4 0z" overflow="visible"/>
        <path d="M2 2v1c0 .55.454 1 1 1a9 9 0 0 1 9 9c0 .55.454 1 1 1h1v-1C14 6.925 9.075 2 3 2H2zm0 4v1c0 .55.454 1 1 1a5 5 0 0 1 5 5c0 .55.454 1 1 1h1v-1a7 7 0 0 0-7-7H2z" overflow="visible"/>
    </g>

</symbol>
<symbol id="documents" viewBox="0 0 16 16">
    <title>
        Gnome Symbolic Icon Theme
    </title>
    <g transform="translate(-542 -382)">
        <path d="M544 382c-1.09 0-2 .91-2 2v9c0 1.09.91 2 2 2h7c1.09 0 2-.91 2-2v-9c0-1.09-.91-2-2-2h-7zm0 2h7v9h-7v-9z" overflow="visible"/>
        <path d="M554 385v2h1v9h-9c0 1.09.91 2 2 2h7c1.09 0 2-.91 2-2v-9c0-1.09-.91-2-2-2z" overflow="visible"/>
        <rect x="545" y="385" rx=".5" height="1" ry=".5" width="4" overflow="visible"/>
        <rect x="545" y="387" rx=".5" height="1" ry=".5" width="5" overflow="visible"/>
        <rect x="545" y="389" rx=".5" height="1" ry=".5" width="3" overflow="visible"/>
        <rect x="545" y="391" rx=".5" height="1" ry=".5" width="5" overflow="visible"/>
    </g>

</symbol>
<symbol id="pdf" viewBox="0 0 12 16"><path fill-rule="evenodd" d="M8.5 1H1a1 1 0 0 0-1 1v12a1 1 0 0 0 1 1h10a1 1 0 0 0 1-1V4.5L8.5 1zM1 2h4a.68.68 0 0 0-.31.2 1.08 1.08 0 0 0-.23.47 4.22 4.22 0 0 0-.09 1.47c.06.609.173 1.211.34 1.8A21.78 21.78 0 0 1 3.6 8.6c-.5 1-.8 1.66-.91 1.84a7.16 7.16 0 0 0-.69.3 4.19 4.19 0 0 0-1 .64V2zm4.42 4.8a5.65 5.65 0 0 0 1.17 2.09c.275.237.595.417.94.53-.64.09-1.23.2-1.81.33a12.22 12.22 0 0 0-1.81.59c-.587.243.22-.44.61-1.25.365-.74.67-1.51.91-2.3l-.01.01zM11 14H1.5a.74.74 0 0 1-.17 0 2.12 2.12 0 0 0 .73-.44 10.14 10.14 0 0 0 1.78-2.38c.31-.13.58-.23.81-.31l.42-.14c.45-.13.94-.23 1.44-.33s1-.16 1.48-.2a8.65 8.65 0 0 0 1.39.53c.403.11.814.188 1.23.23h.38V14H11zm0-4.86a3.74 3.74 0 0 0-.64-.28 4.22 4.22 0 0 0-.75-.11c-.411.003-.822.03-1.23.08a3 3 0 0 1-1-.64 6.07 6.07 0 0 1-1.29-2.33c.111-.661.178-1.33.2-2 .02-.25.02-.5 0-.75a1.05 1.05 0 0 0-.2-.88.82.82 0 0 0-.61-.23H8l3 3v4.14z"/>
</symbol>
<symbol id="address-book" viewBox="0 0 16 16">
    <title>
        Gnome Symbolic Icon Theme
    </title>
    <g>
        <path d="M1.189 14c0 1.09.91 2 2 2h8.823c1.09 0 2-.91 2-2V3c0-1.09-.91-2-2-2H3.189c-1.09 0-2 .91-2 2h10.823v11H1.189z" overflow="visible"/>
        <path d="M.594 12a.502.502 0 1 0 .093 1H2.5a.5.5 0 1 0 0-1H.687a.5.5 0 0 0-.093 0zm0-2a.502.502 0 1 0 .093 1H2.5a.5.5 0 1 0 0-1H.687a.5.5 0 0 0-.093 0zm0-2a.502.502 0 1 0 .093 1H2.5a.5.5 0 1 0 0-1H.687a.5.5 0 0 0-.093 0zm0-2a.502.502 0 1 0 .093 1H2.5a.5.5 0 1 0 0-1H.687a.5.5 0 0 0-.093 0zm0-2a.502.502 0 1 0 .093 1H2.5a.5.5 0 1 0 0-1H.687a.5.5 0 0 0-.093 0z" overflow="visible"/>
        <path d="M7 10c.328.066.666.007 1 0 .334-.007.669.04 1 0 .624-.074 1.196-.462 1.523-.998a2.41 2.41 0 0 0 .26-1.817A2.807 2.807 0 0 0 9.75 5.652 3.366 3.366 0 0 0 8.009 5a3.737 3.737 0 0 0-2.565.746 3.69 3.69 0 0 0-1.382 2.285 3.647 3.647 0 0 0 .185 1.895c.228.6.618 1.137 1.119 1.54.5.402 1.11.668 1.744.76A3.647 3.647 0 0 0 9 12v-1c-.453.299-1 .453-1.542.437a2.677 2.677 0 0 1-1.513-.53 2.676 2.676 0 0 1-.932-1.304A2.677 2.677 0 0 1 5 8a2.818 2.818 0 0 1 1.154-1.511A3.13 3.13 0 0 1 8 6c.537.026 1.082.193 1.483.551.2.18.362.404.456.656.095.252.12.53.061.793-.054.24-.18.464-.355.637a1.294 1.294 0 0 1-.645.34V8a1.628 1.628 0 0 0-.595-.737 1.628 1.628 0 0 0-.905-.277c-.32 0-.64.098-.905.277-.266.18-.476.44-.595.737-.158.394-.152.856.033 1.238.186.383.55.678.967.762m1.036-.977a.708.708 0 0 1-.814.132.707.707 0 0 1-.378-.732.707.707 0 0 1 .453-.554A.706.706 0 0 1 8 8" letter-spacing="0" word-spacing="0"/>
    </g>

</symbol>
<symbol id="print" viewBox="0 0 16 16">
    <title>
        Gnome Symbolic Icon Theme
    </title>
    <path d="M2 4c-.5 0-1 .5-1 1v4c0 .5.5 1 1 1h1V8h10v2h1c.5 0 1-.5 1-1V5c0-.5-.5-1-1-1zm2-3v2h8V1z"/>
    <path d="M4 9v5h8V9z"/>

</symbol>
<symbol id="pause" viewBox="0 0 16 16">
    <title>
        Gnome Symbolic Icon Theme
    </title>
    <path d="M4 4v8h3V4H4zm5 0v8h3V4H9z"/>

</symbol>
<symbol id="play" viewBox="0 0 16 16">
    <title>
        Gnome Symbolic Icon Theme
    </title>
    <path d="M4 3v10h1a1 1 0 0 0 .5-.125l7-4c.31-.172.469-.523.469-.875s-.158-.703-.469-.875l-7-4A.996.996 0 0 0 5 3h-.094z"/>

</symbol>
<symbol id="stop" viewBox="0 0 16 16">
    <title>
        Gnome Symbolic Icon Theme
    </title>
    <path d="M4 4v8h8V4z"/>

</symbol></svg>