<?xml version="1.0" standalone="no"?>
<!DOCTYPE svg PUBLIC "-//W3C//DTD SVG 20010904//EN"
 "http://www.w3.org/TR/2001/REC-SVG-20010904/DTD/svg10.dtd">
<svg version="1.0" xmlns="http://www.w3.org/2000/svg"
 width="700.000000pt" height="700.000000pt" viewBox="0 0 700.000000 700.000000"
 preserveAspectRatio="xMidYMid meet">
<metadata>
Created by potrace 1.11, written by Peter Selinger 2001-2013
</metadata>
<g transform="translate(0.000000,700.000000) scale(0.100000,-0.100000)"
fill="#000000" stroke="none">
<path d="M3275 6994 c-745 -60 -1396 -313 -1960 -760 -141 -113 -436 -408
-549 -549 -410 -517 -657 -1108 -742 -1780 -25 -195 -25 -615 0 -810 85 -672
332 -1263 742 -1780 113 -142 408 -437 549 -549 518 -411 1108 -657 1780 -742
195 -25 615 -25 810 0 563 71 1057 251 1518 552 53 35 97 66 97 68 0 3 -51
-19 -112 -49 -296 -140 -594 -207 -923 -207 -575 0 -1102 218 -1505 622 -404
404 -619 923 -620 1500 -1 579 214 1104 620 1510 404 404 925 619 1502 620
580 1 1100 -213 1508 -620 588 -585 778 -1460 489 -2254 -17 -49 -57 -140 -89
-202 -31 -63 -55 -114 -54 -114 2 0 37 51 78 113 306 463 490 962 562 1532 25
195 25 615 0 810 -85 672 -331 1262 -742 1780 -112 141 -407 436 -549 549
-509 404 -1091 650 -1745 737 -140 19 -543 33 -665 23z"/>
</g>
</svg>
